<?xml version="1.0" encoding="UTF-8"?>
<svg version="1.1" xmlns="http://www.w3.org/2000/svg" width="191" height="181">
<path d="M0 0 C59.73 0 119.46 0 181 0 C181 20.13 181 40.26 181 61 C177.7 61 174.4 61 171 61 C171 64.3 171 67.6 171 71 C161.1 71 151.2 71 141 71 C141 87.5 141 104 141 121 C137.7 121 134.4 121 131 121 C131 124.3 131 127.6 131 131 C124.4 131 117.8 131 111 131 C111 134.3 111 137.6 111 141 C104.4 141 97.8 141 91 141 C91 144.3 91 147.6 91 151 C64.27 151 37.54 151 10 151 C10 147.7 10 144.4 10 141 C6.7 141 3.4 141 0 141 C0 94.47 0 47.94 0 0 Z M141 21 C141 30.57 141 40.14 141 50 C147.27 50 153.54 50 160 50 C160 40.43 160 30.86 160 21 C153.73 21 147.46 21 141 21 Z " fill="#FFFFFF" transform="translate(10,0)"/>
<path d="M0 0 C56.43 0 112.86 0 171 0 C171 3.63 171 7.26 171 11 C164.4 11 157.8 11 151 11 C151 14.3 151 17.6 151 21 C107.77 21 64.54 21 20 21 C20 17.7 20 14.4 20 11 C13.4 11 6.8 11 0 11 C0 7.37 0 3.74 0 0 Z " fill="#FFFFFF" transform="translate(0,160)"/>
</svg>
