<?xml version="1.0" encoding="UTF-8"?>
<svg version="1.1" xmlns="http://www.w3.org/2000/svg" width="325" height="251">
<path d="M0 0 C10.56 0 21.12 0 32 0 C32 6.6 32 13.2 32 20 C38.6 20 45.2 20 52 20 C52 16.7 52 13.4 52 10 C69.49 10 86.98 10 105 10 C105 13.3 105 16.6 105 20 C111.6 20 118.2 20 125 20 C125 13.4 125 6.8 125 0 C135.56 0 146.12 0 157 0 C157 3.3 157 6.6 157 10 C163.93 10 170.86 10 178 10 C178 13.3 178 16.6 178 20 C181.63 20 185.26 20 189 20 C189 23.63 189 27.26 189 31 C192.3 31 195.6 31 199 31 C199 34.3 199 37.6 199 41 C202.63 41 206.26 41 210 41 C210 51.56 210 62.12 210 73 C213.3 73 216.6 73 220 73 C220 79.93 220 86.86 220 94 C223.63 94 227.26 94 231 94 C231 114.46 231 134.92 231 156 C234.3 156 237.6 156 241 156 C241 173.82 241 191.64 241 210 C237.7 210 234.4 210 231 210 C231 213.3 231 216.6 231 220 C224.07 220 217.14 220 210 220 C210 223.3 210 226.6 210 230 C203.07 230 196.14 230 189 230 C189 233.63 189 237.26 189 241 C182.07 241 175.14 241 168 241 C168 244.3 168 247.6 168 251 C160.74 251 153.48 251 146 251 C146 247.7 146 244.4 146 241 C142.7 241 139.4 241 136 241 C136 237.37 136 233.74 136 230 C132.37 230 128.74 230 125 230 C125 226.7 125 223.4 125 220 C122.03 220 119.06 220 116 220 C116 223.3 116 226.6 116 230 C91.25 230 66.5 230 41 230 C41 226.7 41 223.4 41 220 C38.03 220 35.06 220 32 220 C32 223.3 32 226.6 32 230 C28.7 230 25.4 230 22 230 C22 233.63 22 237.26 22 241 C18.37 241 14.74 241 11 241 C11 244.3 11 247.6 11 251 C3.74 251 -3.52 251 -11 251 C-11 247.7 -11 244.4 -11 241 C-17.93 241 -24.86 241 -32 241 C-32 237.37 -32 233.74 -32 230 C-38.93 230 -45.86 230 -53 230 C-53 226.7 -53 223.4 -53 220 C-59.93 220 -66.86 220 -74 220 C-74 216.7 -74 213.4 -74 210 C-77.3 210 -80.6 210 -84 210 C-84 192.18 -84 174.36 -84 156 C-80.7 156 -77.4 156 -74 156 C-74 135.54 -74 115.08 -74 94 C-70.37 94 -66.74 94 -63 94 C-63 87.07 -63 80.14 -63 73 C-59.7 73 -56.4 73 -53 73 C-53 62.44 -53 51.88 -53 41 C-49.37 41 -45.74 41 -42 41 C-42 37.7 -42 34.4 -42 31 C-38.7 31 -35.4 31 -32 31 C-32 27.37 -32 23.74 -32 20 C-28.37 20 -24.74 20 -21 20 C-21 16.7 -21 13.4 -21 10 C-14.07 10 -7.14 10 0 10 C0 6.7 0 3.4 0 0 Z M11 115 C11 118.63 11 122.26 11 126 C7.37 126 3.74 126 0 126 C0 135.9 0 145.8 0 156 C3.63 156 7.26 156 11 156 C11 159.63 11 163.26 11 167 C20.9 167 30.8 167 41 167 C41 163.37 41 159.74 41 156 C44.63 156 48.26 156 52 156 C52 146.1 52 136.2 52 126 C48.37 126 44.74 126 41 126 C41 122.37 41 118.74 41 115 C31.1 115 21.2 115 11 115 Z M116 115 C116 118.63 116 122.26 116 126 C112.37 126 108.74 126 105 126 C105 135.9 105 145.8 105 156 C108.63 156 112.26 156 116 156 C116 159.63 116 163.26 116 167 C125.9 167 135.8 167 146 167 C146 163.37 146 159.74 146 156 C149.63 156 153.26 156 157 156 C157 146.1 157 136.2 157 126 C153.37 126 149.74 126 146 126 C146 122.37 146 118.74 146 115 C136.1 115 126.2 115 116 115 Z M1 199 C1 202.3 1 205.6 1 209 C3.97 209 6.94 209 10 209 C10 205.7 10 202.4 10 199 C7.03 199 4.06 199 1 199 Z M147 199 C147 202.3 147 205.6 147 209 C149.97 209 152.94 209 156 209 C156 205.7 156 202.4 156 199 C153.03 199 150.06 199 147 199 Z M11 210 C11 212.97 11 215.94 11 219 C17.6 219 24.2 219 31 219 C31 216.03 31 213.06 31 210 C24.4 210 17.8 210 11 210 Z M126 210 C126 212.97 126 215.94 126 219 C132.6 219 139.2 219 146 219 C146 216.03 146 213.06 146 210 C139.4 210 132.8 210 126 210 Z " fill="#FFFFFF" transform="translate(84,0)"/>
</svg>
