<?xml version="1.0" encoding="UTF-8"?>
<svg version="1.1" xmlns="http://www.w3.org/2000/svg" width="273" height="246">
<path d="M0 0 C21.78 0 43.56 0 66 0 C66 4.29 66 8.58 66 13 C70.29 13 74.58 13 79 13 C79 17.29 79 21.58 79 26 C83.29 26 87.58 26 92 26 C92 34.25 92 42.5 92 51 C95.96 51 99.92 51 104 51 C104 42.75 104 34.5 104 26 C108.29 26 112.58 26 117 26 C117 21.71 117 17.42 117 13 C121.29 13 125.58 13 130 13 C130 8.71 130 4.42 130 0 C151.45 0 172.9 0 195 0 C195 4.29 195 8.58 195 13 C199.29 13 203.58 13 208 13 C208 17.29 208 21.58 208 26 C212.29 26 216.58 26 221 26 C221 34.25 221 42.5 221 51 C225.29 51 229.58 51 234 51 C234 68.49 234 85.98 234 104 C229.71 104 225.42 104 221 104 C221 112.58 221 121.16 221 130 C216.71 130 212.42 130 208 130 C208 134.29 208 138.58 208 143 C203.71 143 199.42 143 195 143 C195 147.29 195 151.58 195 156 C190.71 156 186.42 156 182 156 C182 160.29 182 164.58 182 169 C177.71 169 173.42 169 169 169 C169 173.29 169 177.58 169 182 C164.71 182 160.42 182 156 182 C156 186.29 156 190.58 156 195 C151.71 195 147.42 195 143 195 C143 199.29 143 203.58 143 208 C139.04 208 135.08 208 131 208 C131 212.29 131 216.58 131 221 C126.71 221 122.42 221 118 221 C118 225.29 118 229.58 118 234 C113.71 234 109.42 234 105 234 C105 237.96 105 241.92 105 246 C100.38 246 95.76 246 91 246 C91 242.04 91 238.08 91 234 C86.71 234 82.42 234 78 234 C78 229.71 78 225.42 78 221 C73.71 221 69.42 221 65 221 C65 216.71 65 212.42 65 208 C60.71 208 56.42 208 52 208 C52 203.71 52 199.42 52 195 C47.71 195 43.42 195 39 195 C39 190.71 39 186.42 39 182 C34.71 182 30.42 182 26 182 C26 177.71 26 173.42 26 169 C21.71 169 17.42 169 13 169 C13 164.71 13 160.42 13 156 C8.71 156 4.42 156 0 156 C0 151.71 0 147.42 0 143 C-4.29 143 -8.58 143 -13 143 C-13 138.71 -13 134.42 -13 130 C-17.29 130 -21.58 130 -26 130 C-26 121.42 -26 112.84 -26 104 C-30.29 104 -34.58 104 -39 104 C-39 86.51 -39 69.02 -39 51 C-34.71 51 -30.42 51 -26 51 C-26 42.75 -26 34.5 -26 26 C-21.71 26 -17.42 26 -13 26 C-13 21.71 -13 17.42 -13 13 C-8.71 13 -4.42 13 0 13 C0 8.71 0 4.42 0 0 Z " fill="#FFFFFF" transform="translate(39,0)"/>
</svg>
